<?xml version="1.0" encoding="utf-8"?>
<!-- Generator: Adobe Illustrator 25.2.1, SVG Export Plug-In . SVG Version: 6.00 Build 0)  -->
<svg version="1.1" xmlns="http://www.w3.org/2000/svg" xmlns:xlink="http://www.w3.org/1999/xlink" x="0px" y="0px"
	 viewBox="0 0 1280 1280" style="enable-background:new 0 0 1280 1280;" xml:space="preserve">
<style type="text/css">
	.st0{fill:#FCDEE4;}
	.st1{fill:none;}
	.st2{fill:#85A3D3;}
	.st3{fill:#EF95C7;}
	.st4{fill:#EDEDED;}
	.st5{fill:#FF8FBD;stroke:#000000;stroke-miterlimit:10;}
</style>
<g id="图层_1">
	<g>
		<rect x="0.5" y="-0.5" class="st0" width="1277" height="1280"/>
		<path d="M1277,0v1279H1V0H1277 M1278-1H0v1281h1278V-1L1278-1z"/>
	</g>
	<polygon class="st1" points="542.04,590.37 527.8,630.21 556.55,630.21 	"/>
	<path class="st1" d="M404.27,515.08c5.6,6.18,12.55,9.27,20.84,9.27c8.35,0,15.26-3.06,20.75-9.19c5.49-6.13,8.23-15.54,8.23-28.23
		c0-12.45-2.67-21.65-8.01-27.61c-1.03-1.15-2.12-2.18-3.27-3.11l-45.37,45.37C398.81,507.06,401.09,511.57,404.27,515.08z"/>
	<path class="st1" d="M666.31,938.14c2.44-2.71,4.49-6.92,6.14-12.59l-20.09,20.09c1.49-0.28,2.81-0.62,3.92-1.01
		C660.37,943.19,663.71,941.03,666.31,938.14z"/>
	<path class="st1" d="M672.78,924.43c1.71-6.24,2.56-14.47,2.56-24.68c0-10.6-0.88-18.96-2.62-25.07
		c-1.75-6.11-4.47-10.93-8.16-14.44c-3.69-3.51-8.18-5.82-13.46-6.93c-3.96-0.84-11.62-1.27-22.96-1.27h-12.82v94.73h21.22
		c6.6,0,11.87-0.38,15.83-1.13l20.09-20.09C672.56,925.17,672.67,924.81,672.78,924.43z"/>
	<path class="st1" d="M796.82,459.3c-5.34-5.96-12.33-8.94-20.97-8.94s-15.67,3-21.1,9.01s-8.14,15.31-8.14,27.91
		c0,12.35,2.8,21.62,8.41,27.8c5.6,6.18,12.55,9.27,20.84,9.27c3.31,0,6.4-0.49,9.26-1.46l16.79-16.79
		c1.95-5.23,2.93-11.62,2.93-19.18C804.83,474.46,802.16,465.26,796.82,459.3z"/>
	<path class="st1" d="M796.6,515.15c2.22-2.48,3.98-5.5,5.3-9.06l-16.79,16.79C789.46,521.42,793.3,518.84,796.6,515.15z"/>
	<polygon class="st1" points="499.17,762.86 527.91,762.86 513.4,723.02 	"/>
	<path class="st1" d="M749.63,654.53c6.82,0,11.76-0.54,14.82-1.61c3.06-1.07,5.56-2.69,7.52-4.87c1.95-2.17,3.57-5.6,4.85-10.28
		c1.28-4.68,1.92-10.85,1.92-18.51c0-7.95-0.66-14.22-1.97-18.8c-1.31-4.58-3.35-8.19-6.12-10.83c-2.77-2.63-6.13-4.37-10.1-5.2
		c-2.97-0.63-8.71-0.95-17.22-0.95h-9.62v71.04H749.63z"/>
	<path class="st1" d="M404.01,459.37c-5.43,6.01-8.14,15.31-8.14,27.91c0,5.34,0.53,10.1,1.57,14.28l45.37-45.37
		c-4.82-3.88-10.72-5.83-17.7-5.83C416.47,450.37,409.44,453.37,404.01,459.37z"/>
	<path class="st1" d="M789.35,315.98c-3.19-2.18-6.8-3.28-10.85-3.28c-5.21,0-9.93,1.41-14.15,4.24c-4.22,2.83-7.19,6.73-8.89,11.7
		c-1.71,4.97-2.56,14.35-2.56,28.14v10.32l42.68-42.68C794.36,320.81,792.29,317.99,789.35,315.98z"/>
	<path class="st1" d="M925.3,738.03c1.63-2.15,2.45-5,2.45-8.57c0-3.42-0.82-6.16-2.45-8.24c-1.63-2.07-3.85-3.5-6.64-4.29
		c-1.98-0.54-7.72-0.8-17.22-0.8h-16.61v27.25h15.74c9.62,0,15.74-0.35,18.36-1.06C921.54,741.61,923.67,740.18,925.3,738.03z"/>
	<polygon class="st2" points="530.4,411.15 577.17,291.25 545.37,291.25 522.89,352.45 516.33,372.88 509.87,352.45 487.71,291.25 
		455.21,291.25 502.77,411.15 	"/>
	<rect x="596.17" y="245.64" class="st2" width="31.13" height="165.51"/>
	<rect x="659.11" y="291.25" class="st2" width="31.13" height="119.9"/>
	<rect x="659.11" y="245.64" class="st2" width="31.13" height="29.35"/>
	<path class="st2" d="M752.9,367.1v-10.32c0-13.79,0.85-23.17,2.56-28.14c1.71-4.97,4.67-8.87,8.89-11.7
		c4.22-2.83,8.94-4.24,14.15-4.24c4.04,0,7.66,1.09,10.85,3.28c2.94,2.01,5,4.83,6.23,8.44l23.97-23.97
		c-2.04-2.26-4.45-4.3-7.28-6.09c-6.25-3.96-13.9-5.93-22.98-5.93c-7.82,0-14.94,1.69-21.36,5.08c-6.42,3.39-12.2,8.47-17.32,15.24
		v-17.5h-28.84v106.98L752.9,367.1z"/>
	<polygon class="st2" points="308,541.04 329.16,541.04 329.16,495.98 367.8,433.67 343.41,433.67 319.06,476.12 294.37,433.67 
		269.54,433.67 308,495.83 	"/>
	<path class="st2" d="M395.86,487.28c0-12.6,2.71-21.9,8.14-27.91c5.43-6.01,12.46-9.01,21.1-9.01c6.97,0,12.87,1.94,17.7,5.83
		l14.16-14.16c-8.7-6.79-19.36-10.19-31.99-10.19c-10.37,0-19.2,2.03-26.49,6.08c-7.29,4.05-13.19,10.22-17.7,18.49
		c-4.52,8.28-6.78,18.81-6.78,31.6c0,11.77,2.25,21.85,6.71,30.27l16.71-16.71C396.39,497.38,395.86,492.62,395.86,487.28z"/>
	<polygon class="st2" points="713.91,522.88 661.11,522.88 661.11,434.55 639.95,434.55 639.95,541.04 713.91,541.04 	"/>
	<path class="st2" d="M775.85,524.34c-8.29,0-15.23-3.09-20.84-9.27c-5.6-6.18-8.41-15.44-8.41-27.8c0-12.6,2.71-21.9,8.14-27.91
		s12.46-9.01,21.1-9.01s15.63,2.98,20.97,8.94c5.34,5.96,8.01,15.16,8.01,27.61c0,7.56-0.98,13.95-2.93,19.18l24.59-24.59
		c-0.95-14.95-5.61-26.7-14.02-35.24c-9.47-9.62-21.72-14.43-36.76-14.43c-10.38,0-19.21,2.03-26.49,6.08
		c-7.29,4.05-13.19,10.22-17.7,18.49s-6.78,18.81-6.78,31.6c0,17.63,5.01,31.49,15.04,41.6c6.78,6.81,15.47,10.98,26.05,12.55
		l19.28-19.28C782.25,523.85,779.17,524.34,775.85,524.34z"/>
	<polygon class="st2" points="855.63,433.67 832.64,433.67 843.45,464.55 860.32,447.68 	"/>
	<path class="st2" d="M512.62,672.69l8.69-24.32h42.07l9.2,24.32h23l-42.12-107.37h-22.47l-40.92,107.37H512.62z M542.04,590.37
		l14.51,39.84H527.8L542.04,590.37z"/>
	<polygon class="st2" points="690.35,672.69 690.35,617.65 656.32,651.68 669.02,672.69 	"/>
	<polygon class="st2" points="690.35,565.32 670.59,565.32 670.59,637.02 627.58,565.32 606.95,565.32 606.95,672.69 626.71,672.69 
		626.71,602.67 656.32,651.68 690.35,617.65 	"/>
	<polygon class="st2" points="712.56,565.32 712.56,595.44 742.68,565.32 	"/>
	<polygon class="st2" points="400.37,771.28 381.26,697.97 349.53,697.97 349.53,805.34 369.29,805.34 369.29,720.74 390.08,805.34 
		410.49,805.34 431.44,720.74 431.44,805.34 451.2,805.34 451.2,697.97 419.32,697.97 	"/>
	<path class="st2" d="M502.35,697.97l-40.92,107.37h22.56l8.69-24.32h34.3l21.86-21.86l-24.01-61.2H502.35z M499.17,762.86
		l14.24-39.84l14.51,39.84H499.17z"/>
	<path class="st2" d="M594.49,699.72c-5.6,2.39-9.98,5.93-13.16,10.61c-3.18,4.69-4.76,9.95-4.76,15.81c0,1.66,0.15,3.28,0.42,4.87
		l34.8-34.8C605.06,696.51,599.29,697.67,594.49,699.72z"/>
	<polygon class="st2" points="720.82,805.34 720.82,716.13 751.94,716.13 751.94,697.97 668.45,697.97 668.45,716.13 699.66,716.13 
		699.66,805.34 	"/>
	<polygon class="st2" points="786.91,758.03 839.72,758.03 839.72,739.93 786.91,739.93 786.91,716.13 843.74,716.13 843.74,697.97 
		765.75,697.97 765.75,805.34 845.66,805.34 845.66,787.18 786.91,787.18 	"/>
	<path class="st2" d="M933.17,766.92c-2.97-3.25-6.73-6.24-11.28-8.97c8.86-1.32,15.69-4.54,20.5-9.67s7.21-11.89,7.21-20.29
		c0-6.64-1.57-12.34-4.72-17.1c-3.15-4.76-7.17-8.11-12.06-10.04c-4.9-1.93-13.06-2.89-24.48-2.89h-44.67v107.37h21.16v-44.82h4.37
		c4.9,0,8.45,0.4,10.67,1.21c2.21,0.8,4.31,2.27,6.29,4.39c1.98,2.12,5.73,7.41,11.26,15.86l15.35,23.37h25.31l-12.76-20.95
		C940.2,775.99,936.14,770.17,933.17,766.92z M900.56,743.38h-15.74v-27.25h16.61c9.5,0,15.24,0.27,17.22,0.8
		c2.8,0.78,5.01,2.21,6.64,4.29c1.63,2.08,2.45,4.82,2.45,8.24c0,3.56-0.82,6.42-2.45,8.57c-1.63,2.15-3.76,3.58-6.38,4.29
		C916.3,743.02,910.18,743.38,900.56,743.38z"/>
	<rect x="531.97" y="827.83" class="st2" width="28.21" height="143.16"/>
	<path class="st2" d="M686.55,843.84c-5.59-5.79-11.7-9.91-18.34-12.35s-16.48-3.66-29.52-3.66H587.1v143.16h39.91l25.35-25.35
		c-3.96,0.75-9.23,1.13-15.83,1.13h-21.22v-94.73h12.82c11.34,0,19,0.42,22.96,1.27c5.28,1.11,9.77,3.42,13.46,6.93
		c3.69,3.51,6.41,8.33,8.16,14.44c1.75,6.11,2.62,14.47,2.62,25.07c0,10.21-0.86,18.44-2.56,24.68c-0.11,0.39-0.22,0.74-0.33,1.12
		l31.86-31.86c-0.47-10.6-1.99-19.71-4.6-27.29C696.53,857.16,692.14,849.64,686.55,843.84z"/>
	<polygon class="st2" points="731.76,827.83 731.8,861.42 732.21,865.79 760.78,837.22 760.79,827.83 	"/>
	<g>
		<path class="st3" d="M793.89,331.36c1.17,4.07,1.75,12.25,1.75,24.53v61.26h31.13v-74.58c0-11.75-1.19-20.73-3.57-26.95
			c-1.3-3.4-3.2-6.44-5.65-9.16l-23.97,23.97C793.69,330.73,793.8,331.04,793.89,331.36z"/>
		<polygon class="st3" points="719.77,417.15 750.9,417.15 750.9,373.1 719.77,404.23 		"/>
		<path class="st3" d="M459.74,452.26c-1.52-1.54-3.11-2.94-4.77-4.23l-14.16,14.16c1.15,0.93,2.24,1.96,3.27,3.11
			c5.34,5.96,8.01,15.16,8.01,27.61c0,12.7-2.74,22.11-8.23,28.23c-5.49,6.13-12.4,9.19-20.75,9.19c-8.29,0-15.23-3.09-20.84-9.27
			c-3.18-3.51-5.46-8.01-6.83-13.51l-16.71,16.71c2.22,4.19,4.99,7.98,8.32,11.34c8.8,8.84,20.81,13.26,36.02,13.26
			c15.09,0,27.04-4.47,35.84-13.4c10.02-10.11,15.04-24.14,15.04-42.11C473.95,475.58,469.21,461.88,459.74,452.26z"/>
		<path class="st3" d="M490.38,439.67v57.28c0,16.07,1.38,27.09,4.15,33.07c2.77,5.98,7.23,10.62,13.38,13.92
			c6.15,3.3,14.7,4.94,25.66,4.94c10.55,0,19.04-1.99,25.48-5.97c6.44-3.98,10.58-9.18,12.41-15.6c1.84-6.42,2.75-16.83,2.75-31.24
			v-56.4h-21.16v59.4c0,10.69-0.57,17.66-1.71,20.91c-1.14,3.25-3.26,5.79-6.35,7.62s-7.1,2.75-12,2.75
			c-5.78,0-10.44-1.29-13.97-3.88c-3.53-2.59-5.77-6.25-6.7-10.99c-0.53-2.73-0.79-8.62-0.79-17.65v-58.15H490.38z"/>
		<path class="st3" d="M809.65,535.47c10.02-10.11,15.04-24.14,15.04-42.11c0-2.01-0.07-3.95-0.19-5.85l-24.59,24.59
			c-1.32,3.55-3.08,6.58-5.3,9.06c-3.31,3.69-7.14,6.27-11.49,7.73l-19.28,19.28c3.16,0.47,6.47,0.71,9.97,0.71
			C788.9,548.87,800.85,544.4,809.65,535.47z"/>
		<polygon class="st3" points="890.86,547.04 928.55,439.67 905.99,439.67 880.25,519.13 858.32,453.68 841.45,470.55 
			868.24,547.04 		"/>
		<polygon class="st3" points="960.46,528.88 960.46,499.73 1013.26,499.73 1013.26,481.63 960.46,481.63 960.46,457.83 
			1017.29,457.83 1017.29,439.67 939.3,439.67 939.3,547.04 1019.21,547.04 1019.21,528.88 		"/>
		<path class="st3" d="M750.38,678.69c8.56,0,15.56-1.01,21-3.04c5.44-2.03,10.09-5.04,13.93-9.05c3.84-4,7.02-9.44,9.52-16.3
			s3.76-14.93,3.76-24.21c0-10.3-1.19-18.92-3.58-25.85c-2.39-6.93-5.68-12.57-9.87-16.92c-4.19-4.35-8.78-7.43-13.75-9.26
			c-4.98-1.83-12.36-2.75-22.14-2.75h-8.56l-30.13,30.13v77.25H750.38z M741.33,589.48c8.51,0,14.25,0.32,17.22,0.95
			c3.96,0.83,7.33,2.56,10.1,5.2c2.77,2.63,4.81,6.24,6.12,10.83c1.31,4.59,1.97,10.85,1.97,18.8c0,7.66-0.64,13.83-1.92,18.51
			c-1.28,4.68-2.9,8.11-4.85,10.28c-1.95,2.17-4.46,3.79-7.52,4.87c-3.06,1.07-8,1.61-14.82,1.61h-15.91v-71.04H741.33z"/>
		<polygon class="st3" points="532.75,787.02 541.95,811.34 564.95,811.34 546.84,765.16 524.98,787.02 		"/>
		<path class="st3" d="M645.86,803.65c6.85-6.35,10.27-14.18,10.27-23.51c0-6.44-1.25-11.92-3.76-16.44
			c-2.51-4.52-6.13-8.2-10.88-11.06c-4.75-2.86-12.45-5.58-23.11-8.17c-10.08-2.39-16.52-4.59-19.33-6.58
			c-2.8-2-4.21-4.46-4.21-7.38c0-2.97,1.54-5.45,4.63-7.45c3.09-2,7.49-2.99,13.2-2.99c5.71,0,10.11,1.15,13.2,3.44
			c3.09,2.3,5.1,6.32,6.03,12.09l21.24-0.95c-0.41-10.45-4.08-18.48-11.02-24.1c-6.94-5.62-16.58-8.42-28.94-8.42
			c-1.17,0-2.31,0.03-3.42,0.08l-34.8,34.8c0.55,3.22,1.64,6.29,3.3,9.22c2.48,4.37,5.81,7.89,10.01,10.57s10.81,5.17,19.85,7.46
			c10.08,2.58,16.44,4.42,19.06,5.52c2.62,1.1,4.57,2.5,5.86,4.21c1.28,1.71,1.92,3.78,1.92,6.22c0,4.15-1.84,7.63-5.51,10.43
			s-8.71,4.21-15.12,4.21c-12.94,0-20.57-6.86-22.91-20.58l-20.72,2.05c2.91,24.56,17.25,36.84,43.01,36.84
			C628.31,813.17,639.01,810,645.86,803.65z"/>
		<path class="st3" d="M664.31,944.14c-2.6,2.89-5.94,5.06-10.02,6.49c-1.12,0.39-2.43,0.73-3.92,1.01l-25.35,25.35h13.19
			c11.41,0,20.75-1.35,28.01-4.05c7.26-2.7,13.45-6.72,18.57-12.06c5.12-5.34,9.35-12.58,12.69-21.73
			c3.34-9.15,5.01-19.91,5.01-32.28c0-2.48-0.07-4.85-0.17-7.18l-31.86,31.86C668.8,937.21,666.75,941.42,664.31,944.14z"/>
		<polygon class="st3" points="730.94,949.55 730.93,976.99 757.74,976.99 757.71,949.55 		"/>
		<polygon class="st3" points="736.68,940.08 751.9,940.08 758.78,867.42 758.78,843.22 730.21,871.79 		"/>
	</g>
</g>
<g id="图层_3">
	<g>
		<path class="st4" d="M802.95,323.85c1.17,4.07,1.75,12.25,1.75,24.53v61.26h31.13v-74.58c0-11.75-1.19-20.73-3.57-26.95
			c-1.3-3.4-3.2-6.44-5.65-9.16l-23.97,23.97C802.75,323.22,802.86,323.52,802.95,323.85z"/>
		<polygon class="st4" points="728.84,409.64 759.97,409.64 759.97,365.59 728.84,396.72 		"/>
		<path class="st4" d="M468.8,444.75c-1.52-1.54-3.11-2.94-4.77-4.23l-14.16,14.16c1.15,0.93,2.24,1.96,3.27,3.11
			c5.34,5.96,8.01,15.16,8.01,27.61c0,12.7-2.74,22.11-8.23,28.23c-5.49,6.13-12.4,9.19-20.75,9.19c-8.29,0-15.23-3.09-20.84-9.27
			c-3.18-3.51-5.46-8.01-6.83-13.51l-16.71,16.71c2.22,4.19,4.99,7.98,8.32,11.34c8.8,8.84,20.81,13.26,36.02,13.26
			c15.09,0,27.04-4.47,35.84-13.4c10.02-10.11,15.04-24.14,15.04-42.11C483.01,468.07,478.27,454.37,468.8,444.75z"/>
		<path class="st4" d="M499.45,432.15v57.28c0,16.07,1.38,27.09,4.15,33.07c2.77,5.98,7.23,10.62,13.38,13.92
			c6.15,3.3,14.7,4.94,25.66,4.94c10.55,0,19.04-1.99,25.48-5.97c6.44-3.98,10.58-9.18,12.41-15.6c1.84-6.42,2.75-16.83,2.75-31.24
			v-56.4h-21.16v59.4c0,10.69-0.57,17.66-1.71,20.91c-1.14,3.25-3.26,5.79-6.35,7.62s-7.1,2.75-12,2.75
			c-5.78,0-10.44-1.29-13.97-3.88c-3.53-2.59-5.77-6.25-6.7-10.99c-0.53-2.73-0.79-8.62-0.79-17.65v-58.15H499.45z"/>
		<path class="st4" d="M818.72,527.95c10.02-10.11,15.04-24.14,15.04-42.11c0-2.01-0.07-3.95-0.19-5.85l-24.59,24.59
			c-1.32,3.55-3.08,6.58-5.3,9.06c-3.31,3.69-7.14,6.27-11.49,7.73l-19.28,19.28c3.16,0.47,6.47,0.71,9.97,0.71
			C797.97,541.36,809.92,536.89,818.72,527.95z"/>
		<polygon class="st4" points="899.93,539.53 937.62,432.15 915.06,432.15 889.31,511.62 867.39,446.16 850.52,463.04 877.3,539.53 
					"/>
		<polygon class="st4" points="969.53,521.36 969.53,492.21 1022.33,492.21 1022.33,474.12 969.53,474.12 969.53,450.32 
			1026.35,450.32 1026.35,432.15 948.37,432.15 948.37,539.53 1028.28,539.53 1028.28,521.36 		"/>
		<path class="st4" d="M759.45,671.18c8.56,0,15.56-1.01,21-3.04c5.44-2.03,10.09-5.04,13.93-9.05c3.84-4,7.02-9.44,9.52-16.3
			s3.76-14.93,3.76-24.21c0-10.3-1.19-18.92-3.58-25.85c-2.39-6.93-5.68-12.57-9.87-16.92c-4.19-4.35-8.78-7.43-13.75-9.26
			c-4.98-1.83-12.36-2.75-22.14-2.75h-8.56l-30.13,30.13v77.25H759.45z M750.4,581.97c8.51,0,14.25,0.32,17.22,0.95
			c3.96,0.83,7.33,2.56,10.1,5.2c2.77,2.63,4.81,6.24,6.12,10.83c1.31,4.59,1.97,10.85,1.97,18.8c0,7.66-0.64,13.83-1.92,18.51
			c-1.28,4.68-2.9,8.11-4.85,10.28c-1.95,2.17-4.46,3.79-7.52,4.87c-3.06,1.07-8,1.61-14.82,1.61h-15.91v-71.04H750.4z"/>
		<polygon class="st4" points="541.81,779.51 551.02,803.83 574.02,803.83 555.9,757.65 534.04,779.51 		"/>
		<path class="st4" d="M654.93,796.14c6.85-6.35,10.27-14.18,10.27-23.51c0-6.44-1.25-11.92-3.76-16.44
			c-2.51-4.52-6.13-8.2-10.88-11.06c-4.75-2.86-12.45-5.58-23.11-8.17c-10.08-2.39-16.52-4.59-19.33-6.58
			c-2.8-2-4.21-4.46-4.21-7.38c0-2.97,1.54-5.45,4.63-7.45c3.09-2,7.49-2.99,13.2-2.99c5.71,0,10.11,1.15,13.2,3.44
			c3.09,2.3,5.1,6.32,6.03,12.09l21.24-0.95c-0.41-10.45-4.08-18.48-11.02-24.1c-6.94-5.62-16.58-8.42-28.94-8.42
			c-1.17,0-2.31,0.03-3.42,0.08l-34.8,34.8c0.55,3.22,1.64,6.29,3.3,9.22c2.48,4.37,5.81,7.89,10.01,10.57s10.81,5.17,19.85,7.46
			c10.08,2.58,16.44,4.42,19.06,5.52c2.62,1.1,4.57,2.5,5.86,4.21c1.28,1.71,1.92,3.78,1.92,6.22c0,4.15-1.84,7.63-5.51,10.43
			s-8.71,4.21-15.12,4.21c-12.94,0-20.57-6.86-22.91-20.58l-20.72,2.05c2.91,24.56,17.25,36.84,43.01,36.84
			C637.37,805.66,648.08,802.49,654.93,796.14z"/>
		<path class="st4" d="M673.37,936.62c-2.6,2.89-5.94,5.06-10.02,6.49c-1.12,0.39-2.43,0.73-3.92,1.01l-25.35,25.35h13.19
			c11.41,0,20.75-1.35,28.01-4.05c7.26-2.7,13.45-6.72,18.57-12.06c5.12-5.34,9.35-12.58,12.69-21.73
			c3.34-9.15,5.01-19.91,5.01-32.28c0-2.48-0.07-4.85-0.17-7.18l-31.86,31.86C677.86,929.7,675.82,933.91,673.37,936.62z"/>
		<polygon class="st4" points="740,942.04 739.99,969.48 766.8,969.48 766.77,942.04 		"/>
		<polygon class="st4" points="745.74,932.56 760.97,932.56 767.84,859.91 767.85,835.7 739.28,864.27 		"/>
	</g>
</g>
<g id="图层_4">
	<g>
		<path class="st5" d="M797.95,326.85c1.17,4.07,1.75,12.25,1.75,24.53v61.26h31.13v-74.58c0-11.75-1.19-20.73-3.57-26.95
			c-1.3-3.4-3.2-6.44-5.65-9.16l-23.97,23.97C797.75,326.22,797.86,326.52,797.95,326.85z"/>
		<polygon class="st5" points="723.84,412.64 754.97,412.64 754.97,368.59 723.84,399.72 		"/>
		<path class="st5" d="M463.8,447.75c-1.52-1.54-3.11-2.94-4.77-4.23l-14.16,14.16c1.15,0.93,2.24,1.96,3.27,3.11
			c5.34,5.96,8.01,15.16,8.01,27.61c0,12.7-2.74,22.11-8.23,28.23c-5.49,6.13-12.4,9.19-20.75,9.19c-8.29,0-15.23-3.09-20.84-9.27
			c-3.18-3.51-5.46-8.01-6.83-13.51l-16.71,16.71c2.22,4.19,4.99,7.98,8.32,11.34c8.8,8.84,20.81,13.26,36.02,13.26
			c15.09,0,27.04-4.47,35.84-13.4c10.02-10.11,15.04-24.14,15.04-42.11C478.01,471.07,473.27,457.37,463.8,447.75z"/>
		<path class="st5" d="M494.45,435.15v57.28c0,16.07,1.38,27.09,4.15,33.07c2.77,5.98,7.23,10.62,13.38,13.92
			c6.15,3.3,14.7,4.94,25.66,4.94c10.55,0,19.04-1.99,25.48-5.97c6.44-3.98,10.58-9.18,12.41-15.6c1.84-6.42,2.75-16.83,2.75-31.24
			v-56.4h-21.16v59.4c0,10.69-0.57,17.66-1.71,20.91c-1.14,3.25-3.26,5.79-6.35,7.62s-7.1,2.75-12,2.75
			c-5.78,0-10.44-1.29-13.97-3.88c-3.53-2.59-5.77-6.25-6.7-10.99c-0.53-2.73-0.79-8.62-0.79-17.65v-58.15H494.45z"/>
		<path class="st5" d="M813.72,530.95c10.02-10.11,15.04-24.14,15.04-42.11c0-2.01-0.07-3.95-0.19-5.85l-24.59,24.59
			c-1.32,3.55-3.08,6.58-5.3,9.06c-3.31,3.69-7.14,6.27-11.49,7.73l-19.28,19.28c3.16,0.47,6.47,0.71,9.97,0.71
			C792.97,544.36,804.92,539.89,813.72,530.95z"/>
		<polygon class="st5" points="894.93,542.53 932.62,435.15 910.06,435.15 884.31,514.62 862.39,449.16 845.52,466.04 872.3,542.53 
					"/>
		<polygon class="st5" points="964.53,524.36 964.53,495.21 1017.33,495.21 1017.33,477.12 964.53,477.12 964.53,453.32 
			1021.35,453.32 1021.35,435.15 943.37,435.15 943.37,542.53 1023.28,542.53 1023.28,524.36 		"/>
		<path class="st5" d="M754.45,674.18c8.56,0,15.56-1.01,21-3.04c5.44-2.03,10.09-5.04,13.93-9.05c3.84-4,7.02-9.44,9.52-16.3
			s3.76-14.93,3.76-24.21c0-10.3-1.19-18.92-3.58-25.85c-2.39-6.93-5.68-12.57-9.87-16.92c-4.19-4.35-8.78-7.43-13.75-9.26
			c-4.98-1.83-12.36-2.75-22.14-2.75h-8.56l-30.13,30.13v77.25H754.45z M745.4,584.97c8.51,0,14.25,0.32,17.22,0.95
			c3.96,0.83,7.33,2.56,10.1,5.2c2.77,2.63,4.81,6.24,6.12,10.83c1.31,4.59,1.97,10.85,1.97,18.8c0,7.66-0.64,13.83-1.92,18.51
			c-1.28,4.68-2.9,8.11-4.85,10.28c-1.95,2.17-4.46,3.79-7.52,4.87c-3.06,1.07-8,1.61-14.82,1.61h-15.91v-71.04H745.4z"/>
		<polygon class="st5" points="536.81,782.51 546.02,806.83 569.02,806.83 550.9,760.65 529.04,782.51 		"/>
		<path class="st5" d="M649.93,799.14c6.85-6.35,10.27-14.18,10.27-23.51c0-6.44-1.25-11.92-3.76-16.44
			c-2.51-4.52-6.13-8.2-10.88-11.06c-4.75-2.86-12.45-5.58-23.11-8.17c-10.08-2.39-16.52-4.59-19.33-6.58
			c-2.8-2-4.21-4.46-4.21-7.38c0-2.97,1.54-5.45,4.63-7.45c3.09-2,7.49-2.99,13.2-2.99c5.71,0,10.11,1.15,13.2,3.44
			c3.09,2.3,5.1,6.32,6.03,12.09l21.24-0.95c-0.41-10.45-4.08-18.48-11.02-24.1c-6.94-5.62-16.58-8.42-28.94-8.42
			c-1.17,0-2.31,0.03-3.42,0.08l-34.8,34.8c0.55,3.22,1.64,6.29,3.3,9.22c2.48,4.37,5.81,7.89,10.01,10.57s10.81,5.17,19.85,7.46
			c10.08,2.58,16.44,4.42,19.06,5.52c2.62,1.1,4.57,2.5,5.86,4.21c1.28,1.71,1.92,3.78,1.92,6.22c0,4.15-1.84,7.63-5.51,10.43
			s-8.71,4.21-15.12,4.21c-12.94,0-20.57-6.86-22.91-20.58l-20.72,2.05c2.91,24.56,17.25,36.84,43.01,36.84
			C632.37,808.66,643.08,805.49,649.93,799.14z"/>
		<path class="st5" d="M668.37,939.62c-2.6,2.89-5.94,5.06-10.02,6.49c-1.12,0.39-2.43,0.73-3.92,1.01l-25.35,25.35h13.19
			c11.41,0,20.75-1.35,28.01-4.05c7.26-2.7,13.45-6.72,18.57-12.06c5.12-5.34,9.35-12.58,12.69-21.73
			c3.34-9.15,5.01-19.91,5.01-32.28c0-2.48-0.07-4.85-0.17-7.18l-31.86,31.86C672.86,932.7,670.82,936.91,668.37,939.62z"/>
		<polygon class="st5" points="735,945.04 734.99,972.48 761.8,972.48 761.77,945.04 		"/>
		<polygon class="st5" points="740.74,935.56 755.97,935.56 762.84,862.91 762.85,838.7 734.28,867.27 		"/>
	</g>
</g>
<g id="图层_2">
	<g>
		<path d="M845.5,274.5c-5.8,7.28-11.83,14.34-17.84,21.41l-19.64,19.61l-39.25,39.25l-39.25,39.25l-19.62,19.62
			c-7.08,6-14.14,12.02-21.39,17.86c5.83-7.25,11.85-14.31,17.86-21.39l19.62-19.62l39.25-39.25l39.25-39.25l19.61-19.64
			C831.16,286.33,838.22,280.3,845.5,274.5z"/>
	</g>
	<g>
		<path d="M907.5,400.5c-17.81,19.28-35.82,38.35-53.84,57.41l-55.64,55.61L686.77,624.77L575.52,736.02l-55.62,55.62l-28.66,26.97
			l-14.33,13.48L462.5,845.5l13.41-14.41l13.48-14.33l26.97-28.66l55.62-55.62l111.25-111.25l111.25-111.25l55.61-55.64
			C869.15,436.32,888.22,418.31,907.5,400.5z"/>
	</g>
	<g>
		<path d="M775,823c-6.74,8.22-13.7,16.22-20.65,24.22l-22.46,22.42l-44.88,44.88l-44.88,44.88l-22.44,22.44
			c-8.02,6.94-16.02,13.9-24.21,20.67c6.77-8.19,13.73-16.19,20.67-24.21l22.44-22.44l44.88-44.88l44.88-44.88l22.42-22.46
			C758.78,836.7,766.78,829.74,775,823z"/>
	</g>
	<g>
		<path d="M490.5,408.5c-7.18,8.65-14.58,17.09-21.96,25.54l-23.77,23.73l-47.5,47.5l-47.5,47.5l-23.75,23.75
			c-8.45,7.38-16.89,14.77-25.52,21.98c7.21-8.63,14.6-17.06,21.98-25.52l23.75-23.75l47.5-47.5l47.5-47.5l23.73-23.77
			C473.41,423.08,481.85,415.68,490.5,408.5z"/>
	</g>
</g>
</svg>
